<mxfile host="Electron" modified="2024-02-16T07:19:42.244Z" agent="Mozilla/5.0 (Windows NT 10.0; Win64; x64) AppleWebKit/537.36 (KHTML, like Gecko) draw.io/21.2.8 Chrome/112.0.5615.165 Electron/24.2.0 Safari/537.36" etag="pJMCUn-Qozrf8oSq8DvB" version="21.2.8" type="device">
  <diagram name="Page-1" id="2XWkQP5S-hDbL94sL5Vg">
    <mxGraphModel dx="2058" dy="1180" grid="1" gridSize="10" guides="1" tooltips="1" connect="1" arrows="1" fold="1" page="1" pageScale="1" pageWidth="3300" pageHeight="4681" background="#999999" math="0" shadow="0">
      <root>
        <mxCell id="0" />
        <mxCell id="1" parent="0" />
        <mxCell id="APLwThIm-aDqV8bCMrbt-1" value="Animations: Targets" style="rounded=0;whiteSpace=wrap;html=1;fontSize=25;fillColor=#dae8fc;strokeColor=#6c8ebf;" parent="1" vertex="1">
          <mxGeometry x="1298" y="140" width="650" height="60" as="geometry" />
        </mxCell>
        <mxCell id="gRgrTdZc8dC36sFJLmP3-1" value="" style="whiteSpace=wrap;html=1;aspect=fixed;fillColor=#f8cecc;strokeColor=#b85450;" parent="1" vertex="1">
          <mxGeometry x="1298" y="390" width="80" height="80" as="geometry" />
        </mxCell>
        <mxCell id="gRgrTdZc8dC36sFJLmP3-2" value="" style="whiteSpace=wrap;html=1;aspect=fixed;fillColor=#f8cecc;strokeColor=#b85450;" parent="1" vertex="1">
          <mxGeometry x="1868" y="400" width="80" height="80" as="geometry" />
        </mxCell>
        <mxCell id="gRgrTdZc8dC36sFJLmP3-3" value="" style="endArrow=classic;html=1;rounded=0;strokeWidth=4;" parent="1" edge="1">
          <mxGeometry width="50" height="50" relative="1" as="geometry">
            <mxPoint x="1420" y="440" as="sourcePoint" />
            <mxPoint x="1840" y="440" as="targetPoint" />
          </mxGeometry>
        </mxCell>
        <mxCell id="pqUNRRFq-fKic4Ir-aoq-1" value="" style="shape=image;verticalLabelPosition=bottom;labelBackgroundColor=default;verticalAlign=top;aspect=fixed;imageAspect=0;image=data:image/png,iVBORw0KGgoAAAANSUhEUgAAAhIAAAEsCAYAAACWpVr/AAAAAXNSR0IArs4c6QAAAARnQU1BAACxjwv8YQUAAAAJcEhZcwAADsMAAA7DAcdvqGQAAEI9SURBVHhe7d0PcFRVni/wL+DWviRvZgzpSBLJH0ATwor8icPgZAnKys4TRPKcIRXGV1Owa95KyhVW1yqxtBhLnlDPxWJYC5iNM1BT5ZAHoy9R0XVxdQAzMmgCDD4gGQYDkYSRNHGmFjLWqrxzzj23+3b3vd23TzpN/nw/VZ2+fdO377/ue37n7x1z64yZV5GkoqISnDvXqV8RERHRaDVWPxMREREljYEEERERGWMgQURERMYYSBAREZExBhJERERkjIEEERERGWMgQURERMYYSBAREZExBhJERERkjIEEERERGWMgQURERMYYSBAREZExBhJERERkjIEEERERGWMgQURERMYYSBAREZExBhJERERkjIEEERERGWMgQURERMYYSBAREZExBhJERERkjIEEERERGWMgQURERMYYSBAREZExBhJERERkjIEEERERGWMgQURERMYYSBAREZGxMbfOmHlVT/tWVFSCc+c69SsiijUGhX8zDjeOB/p//SWOHUz6ZzbEDZf9C6Bq2TdRPXsSCvL1LHyMrSvexAH9iogGZtyEvLwf6mnfvvGN6/GHP3ymX41MmfPGoaJmHCZ+e2zMI2fqGHzjc3EBvQj8p34/+SUToOswbRZw6cjV9By/G8ZixqpxmCTP3bir+P05PX8wiXVOmjsGfyYm/2ziGPzpV1dxxfrPEDHA8zDk989StXoF6quy8bWv6RnKZ/ig6TTO6ldENDCs2jCQMX4Mxi8ah1v/Ziwy9TwaujLLxiBDT2fcPCY95+zTq7h0yZrs//VX6LUmR45hsX8B3JhnTbU27Ebtiq36wdIIolRiIJGALLY99E9fOB5f4jdvfIV++c/xY3HzvDHqfTRUjUGOCB5w6Suc//VVcc7E6xv0vwbVVXT91PrOjLxqDWkY7V9PG/a0jLhQjmjIYCCRtKu4cuIrHPuZFUykLYc7gmSM1xPpcMMYjJf1+L8VCV/7VXHOxOsyBn9SWs8DEY1YbGzpQbaRuPVbY+I0JBuD0n8ch/EisDj9T19GFO1aywLnf/Yluj4VM0RiVvjtsRh/U7iIvf/0l/htU2y9cua0sZg4V7w3dJEXid/pr1zfa9Vzj8ON+Aq/+elXaj0T75HL6oTy0lVcOvQVOk7EOcVu2yaWO/+62Ce57S6S3r9p4zBjrvifn4RLLHdILCcFqq/DTTeJ3XjjC7EPapYLfQzGx54HRax77qIx+jP0ObtkHa9Ex/OKeB2oHosbI/ZLnovoZe1t0C+jeH2HrP2T2/0VMvR65Pm+9MaXalsLY+apxSJ5nD953ruiz7vheTDdP6eBfK/9n4dYVavrUZ/XhsfXHgKbhxMNDpZIDDKZ6M79gbgoOi6CkpyOTYyuw62LnBdbSSx3k0i4RQJY6FUkLwKHidXiPWI9oSBC0m055la758A9t00sd9MPrsMMH9U2fvfPJPfb+yur1Ge8SIA8S31EQqqOl0hY3AqvA6U6IVaJsHg+LZ7E/sWt3hD/zxSfWyoSs5ui9+umsSlvG3OjTDTFeixif8T+ForzGTFPnMeAfmWRgYb3+btRvL90mp7hkP5SiIF9r1NyHvKzUaQniSj1WCLhwcp1xymR0DldWfcenbu1l710+qrKKcqSgdOvi4Tu03AOL/MGkRNz5PjtZazcp6MUQeY47xGJhboIR+e6dc5NX6BlLu28SHytkgSRi5s3Fjepz3TJ1dvbL9f366/widhHex8yxf9uFv/LEP8LlTo4mOxfWKJSgUiJSiXsXL3bdobW5cxd6/12P6+Rx1Mem/PiXNg5e3lcblXHzHt7nBJ9h+x9U+tR2+9cf+y8iHXa+6FKjyKPffi8e5TSKMmdBzcJfyNCKr7X6lgYngdVIjGL3T2JBhNLJJImEklxIZuhL2Sy7t3rIiwTWXmRPfRTWU3gvNBGJbI3jMXN+mIrE4+IqgixXJdY/rxqIS9ymh6lBOpi3mQHEdJV9B78Er+RDQyF8SpnbhMX6rn2hViszxFESFdOiM96Qy4Xvz2B7/0bgFCpRMT228T2yYRYJKZBt/VNE7lg8XSpw7FtJ76CPJQJ27bI4Egkbs7qAXlcTssSDSEjx/u4JEv2erCCILEf4vsUPa9f946IILblNz/7Asdcjr0876HtTEvDUg8p+F6bn4cASpbdjepZYrKnD+no8Us0WjGQSCDjWyLn94/XOR5WbkgWs8p2AHHrhhP93xbQxban7cQjmrjoHrI+xz0BFLm9dvf1XFENDAVZTKzmCHZ1gMiNfuKVm/OT4Prdv4EQCY7qZnjT2NgicB0oeAVzkdUaNvE6YfWGzOW75+SvBFO/v/0un+mc57XOULAmzmdAHIvSahHgipy8/J5aJR3iexVZH5JeKfheJ30eiufi+Z31aNxZg42LJ6Gg52M0b2f7CKLBxEDCgCpOFjn5Y6HGaO76g3oigcwc6znu+3tdAoJkOJezL/Djx+LWiCDJ+RinEul4/O7fwNiJTXTpiF2qIs6FazCjSyvE801R+2YnssO994ZswFj6N2KffjAON8k2CLIdgTjPQ0VavtcJdIvHeWuSiAYJA4kEVNF9xDgSVnFyTIt4GjwnvlJF4BnfGhtucGiXqng0srRLK+IZ1l13VTsB3YBRBLaXxPf09M9kdYf1fbWL/keds4fwiBp0aje27u1DQf4k1D84FyX630SUegwkhpAMnYNzZZciiEQjqYZxbsvZuUDZCDEqSIp5GDbESyipHKjddkAED7ongjVa5VWc/5V7QGdXa5z/mcs+/ZOumxfbkJ7BqVJtDEpVGx2rZEy2UZHtXGRbiSsR7SV8GKSSAKdB+V4n1IsDe3Zh6xExyV4bRIOKgcQQEGrH4NYOQAk3jvRqD+BeF+6xXLx2B2mUTEPAKwetNhtWV1B7tEqPRpYy4IjXCNMZmAzn6g25f64lYzpx9mmwGmSm4ntNREMfA4mh4NOvcF4VRY/BjT+Q/f8diZvsJufsEujVHkCOGzDPkbuMu1y43YFan1wu4kIvuxCOw4x/jB67IBV0Y0e57nvGIuBcr2o06JWwX8Un9hDXYntlkb5n4pOgEaZkJ3LDunpDD9Ee3n4xLXsUyfOu2oHEY3oekjDg7zURDQcMJIaI3qZwVzg1iJTdOFAOOGRfbH/m3oJd6r8klvvWuHDjyUTLye6DqmuoXu4Hejn1GKfGIciQ7RIGIbdqd+mUCaEc+Mq5r7LRoFfwYpVKiETpW2Otag2PxMeq1hDHJF4Pi0/DjfyGX/WGDqoE2aso3GDW7lF0Faf1/+MxPQ/JGOj3emD0TbvY/ZNoUDGQGDJkv/ov1A3B7LsqWkSCd1ok+rIvvWsxvSRyl6/LZcV7HcvKAapkAzyv5a4c/BKHxP/Pn9aJqu2S1XjvN7JRqec6B0DkVI+J9V4S63GyesN4NJ5U7Fy04NXIUiZYKjcu3ht3wKhwjnw4Vm/Icxd9vuV5s9tM9PrpUWN8HpIxkO81EQ0HHNlyWLOLh61c3Wi4IMcfyZLIKYDlG2qwFLzXBtFgYokEDR83yBs3iWeRY3ZvREnkIn82llWmvrUPEVkYSNCwIAdfmvED2TZCxBGHBqlLKo0wvXi/rU9NVdTVoFGNeCkfd6NKzSWiVGAgQUPXDSJ40I3z5OBLMoiQ9eqJbpZFZOvcswuP7/0Y3T16BhGlHNtIDGsjvI2EvsOlcumqKomIuPETERFdcwwkiIiIyBirNoiIiMgYAwkXssSFiIiIEmMgQURERMYYSBAREZExBhJERERkjIEEERERGWMgQURERMYYSBAREZExBhKk5WHN7KdwrPIpNBdN1/OSZX9GPdZk6VmUtLLVm/DQzp/j/tXz9JyRZaTvH9Fow0CCLFnTcKe8mYVQUliOJdYkSZWPqoTvoZ2bcHuxnjdYimtx26x8NZmddyOG6j0rA8tkMPAoyvRr34bJ/hGRfwwkyHL5BN7ttyY7u07iNWuSUILb76nQ0/nInqgnB8vZQzijbjDVgzNth9CrZg41Jbh5tggGes4jqOf4Niz2j4iSwUCCtAvY3PYMZrQ8g6Xnjut5hMrvoiK/B60Nr0LekDq7YLBHPe3E+2u/jxdWPIo39gzV+9kUIlsWKlw4bxAIDIf9I6JkMJCg9Cuei8c21KNxZz2eXzaUC7d1aUTPB/hty3kVSJBQOQeTxdOZDw9ar4loVOPdP12M/LubykaRdVip20RE6+xqwNJzF/QrN3koz63CxsIylOjP6Ay24MWud0Rm9Smszwlix9Gt2HzZ+l+0qtX1qJ+lX4jkuXndLuw6q1+mjAgCNjyLivxW7FuxCe16bohs91Ang4RX0bi20T1nrd9zpuH7eKNlHhbtXIXJR7bhhR+5JaB6fRfs/5egbNl3cdviCmRbb0CfWPYt8b+IddnbES3edjnX1QTcXl2NCtnuoKcVrds34X3Mi50Xc3zF9q3+e9VeIbx9r+LDpka0T5TbVIDWdY/q5cS+b6jG5HyrbUN8UcfbaP8cisV2Vkdup9qn11/G+y1uv1HD80BExlgiQUmygpDG0nAQIZXkVGL9zHo8kKlnXHOdeP/1VvFcgduWRVVHFNfifhVEiETPMzETiacONA63yNdd6JN1+14NBIvnioRWJFLdXdbn73wWCx2Jl5Q9axW+E7UtgYICPRWpL277AV21gDlY9PQqK2CQ8iswufpR3B81r6I6qneEvX3OxFnInnUvFj69CYtukwl/Ny7ZwUfxjWJ9foIIIardhNn+WQIiCLn/6djtVPtU9yzujz6vkuF5ICJzLJFwMfJLJNyVF9WjsTAnbonEkqmyxEFOBbG/4xU8fNF6X3nWdKwqq8Z8FVzEL5FQVRsPzkaFuOB3792NR/YMVt7QrVRClyxE55yjyF4JtYvzdWmEnOOvhKOvR0QbItHNlkHK9pfRflZ+j2TuXyaIYtKzREOLKAXR86LJBPLpe63EUXxeo8xdO3P+0fMi1mnvvyCCpH3bG8U2qn+ohPs74v3qcz1LDPTyfksUovnZP8mxP5ElCCXi3HxXnBv5vx5HqYmmlxvweSAi31giQf5lLcADOoiQgYIdREgnLx/Hw20N2KF7fsR19hCeW7sVtSu2DmIQIUWXSshgQCaiMgHyDiJkYjlHBBGymP53ocSuE5fi1PbYOW+Vc9/7BF5YKz5fJV5SJ9qbrMaaiVif04O+T6zXribeGE7s7QT2E92GwzlPU7lzrWy1DiJkQioCATuIkHpbNuGlBnm8BK+GlLJ0Qj4bNbT0uX92aZAgA46XIvanE717NqFxryweysfkOe4lPAM9D0TkHwMJ8i8zIJJiIXjQu7RhqGl5Ga0izcle/F3cLnKjqgdGdC42SmBZtUps+/aKnKw1y6EA413GksgpkIGHTPiewEtxeiM4E/VYdrfKD/DbeNunE8szrztKBHRw4Zxnv6+vW29PsRzDQTzrYCMez4aU9nqMGlr63L/Q8X/Cs9Si9/AHKiDILii0ZmipOQ9ElAwGEuRbeYbVOqDzykX1PDyESyUqRCJ6piF+EOEsjfgwKiEKdlu54NixJEowPk8+yxIM98QrMOebKgEOJequ/HWrtBLLyFx9mWrXEDnPel+4VCW0DXHaJyQqMXBbj3/J7d+Zw/GOlZtUnQciSgYDCRrhShwDSiUWKvoXgcdCNZpl+CHbTLjTCWScAZrcEv8YvrpVzsMU1ePF0RgylIA65+n3ObYpcQKtSwwiPsfJbT1J8LV/PtehS0YiSxZSdB6IKCkMJChpJZm5emrok43rrAGltuGMeD35nlrvYZntov8EYgal0gmkd07bX+Loq/2A3UbhyGFHtYtOQJ3zjNoyJEqIXdaTBF/750s4OIwoWUjReSCi5DCQIN9OBk9BXbZzPO7FkZWLyR5jU0RI04BUZat/rlroq+qMloM4LBvo5d+LOZX6DVHKqsM9IV5YIUdfjHrohojR9fKhNgueOe3EOWXJyi0b5MR1AhoxzzXHLrlVzUiyR4MujfFKiO3gxJCv/RPfMKtRawWmeJynwLK/Vz1+ZFsPq2uuJVXngYiSw0CC/Avdj6MM62fXYInjDp/luTVonlmN+fp1PFXVVtdPqWDxQiwfhBthye6bMohwNtjr3dPkXSoRKo1oxT6vhoh2z4iosSQSFpfbCX3csRPs3HLkuBeBynkocxwfO7F05sT9zrPaeIj9r3s08jMra7Fog+4WKSRsiDirGrdXOraxeB5uX12b4AZe/vZPav/QCtgm123CIsd6oNZjdcuVx7t1e2T309ScByJKFgMJSsIFbG5vsUolMkQwMdO67bh8qAGq+tuxfwhk9eR4CCqxObItquV+uFQiekAiuzTCvaeGdtZtmOzExeVuiXqsTvy2zUrosxc/G26XUbcKUxwlCG6JpTXP2VXVbuvgnBcOpFT7j6cdbT/q7hUJrAigVJfKOG0oQjfcylcDQoWWVwNg3etZgmDxt39KyybsOyIn8kUwEX7vQ6GBttx63qTqPBBRshhIUHIuv4OlR5uwI+iMGILY39WE2rbd2HYlcSRxoKlNdcmUuvfuS+nw2CqIkGMQeHRxtBNT2R00lIMWy6jcuFjmrbg3ktKjW+bfCDWchpK4uDxhTlnr3fPPIgHVB0YRifrebY7ie7fEUs+LWL/XNh3EG+u2odW5jh6xjoYn0Lh2k35vvKoHecOtJyKXF/rkoE/rEgwwJSTev7D2H30fjQ2t1vG2yW0V729c4dbzJnXngYiSw5EtXYzWkS2JiIiSxRIJIiIiMsZAgoiIiIwxkCAiIiJjDCSIiIjIGAMJIiIiMsZAgoiIiIwxkCAiIiJjDCSIiIjIGAMJIiIiMsZAgoiIiIwxkCAiIiJjDCSIiIjIGAMJIiIiMsZAgohGtLLVm/DQzp/j/tXz9JzhI7DM2vZFlXoGDQiP5+DgbcRdjK7biOdhzew6rEQLatvewUk9l3hcBoO8kNcu7sa+FZvQrucNquJa3P/0vciW0z2vonFtI3rVP4aDEty+4VlU5Pegdd2jeP+snu3cpyh9Pa048/rLeL9laF2/kjvv87Bo5ypM1q88HdmGF350UL/ww+N40oCxRIKI0qQEN8/OFwn6eQT1nEF39hDO9MiJHpxpOzSMggipENnicKHnA/zWmehNvNE1iJCy8ytQUfcs7l9WoucMBUme98o5iYMIoa+7S0/55XE8acAYSBBRmugL+YXzaUzQO/H+2u/jhRWP4o09w6yUsVgHDFHHK1BQoJ7PNMj9cjzWPYF9e1XUhOzF30WZmhoKkjzvLZsi9qtR71P0/r6U7Pn0OJ40cAwkRr1cTM7Qk+QwgONSPBePbahH4856PL8soGeSndM882EyxdGjmC55iM555xSobDX6PrFeh5ztRPuef0arSncLML5Yzb32BnjePfc3WR7HkwaObSRcjPg2Erk1aC4sQ4mfhDLYhBmnjusXDlnTsaZwHu7MyYFdiNrZ3453uw5g88ULek6k8iKRuBYCO45uxebLYobbZ4j1PS7WF90moVxs88YE29zZ1YCl56LW7bGdL7bvxmtyG5xScVyEqtX1qJ+lX6APzet2YdcgFqUGiufh5upqTJ6VHyry7jvyKt76UZz2AMUlKKv+e9zmWAY9rWj1rF/X9csX7Hppsfyy7+K2xRWOdW4T6zzoWOc8LNogtitfJgSJtHrUn4v1rI7cTrlvHzY1on3io3ioriCyvrtSzqvQLxwSto8w2b9IAbHu79wj3h/a3R6c2duEw3u8l4m3f8E5sl1BvsqJv9Gi/2lvZ77X8ZKNS3+OhbO82wGYbWcy37NUnHeb3V4i0ftsyR5PSgWWSIxSvhJLV3lYM7Uex2ZWY6UjcZZKMsqwsrQOW3L1jDhkUOH6GeIRHUQsEetrLPWZwDt4rkNs5/qZT6G5KE/PCTM/LteCvGiKi+PTq1DhDAiE7Fn3onbnJtzukiuVCcn9Tz8rEpvIZRCvfr14rkgYxEVZ5uZkY7+dYnlHIitlz1qF7ziXlUXJvhITwa3+3F6Py74tfHoTFt0mA4ZuXHIklnaxf7S+RO0jTPYvRCacP0etCGDCibOUj8mLV6F2Qy1cy6Xi7t+jmCPbFYgE9HfORE9vJ44cdk9UxWfeJoNY13YAhtuZ7PdsoOfdya6O8NpfJ5PjSSnBEgkXo6vXxnRsqazG/H6fvRNErv2YSNStXP0Bkau3SwDysKToPqwvzBHT7XiyReT4rX+EWCUSOdgfbMf8nDJAfMaTUZ9RnnUBJ50lBXp9EJebHR2vhEo7ynMXYGNppbjEua/Ludz+roPYdi5cyqFKN2RgIj/TLh2JkeRxcZJVGw/OFrlGkczt3Y1H9sRNwgzZOVM5LXKUDf+Mwy2dOrF05Kajc+KOHHtkDrsEAbFMrVhGfl5MblYv19fTI9IdcaHuETnE7S+j/az8nciERl7AxaRnS3qds/Tdc8LOiQpimX3bG8W61D+sHLVMDOWLRJ+ntzthLtR4/+zt1Ln6w+J42sdN5OBvf1AkvuIcxa7fcP/s7dz7RGQbAVnCNCdcguK9vmS30/B7FpLseY/itb8xUvR9ISMskaDkXNyN2qPPYGmbrBpwViNcwGvntuJJlb0IYEqWmulKBhGyGmKGy2dEBBFCeYaVR9rfIRJ8R5XJyYvvYGmHzKOUYWFMCUge1hRaTc3kcg87ggjppNgHa9kc3JkTWyoxYGcP4bm1W1G7YusgBRHiCC/7e+viLi+MsiFh6OIuybryTXhp3TZ1QQ3PFxdbcUGVZILxUkQxvVheLGM1bBM51DmROW87p69ymuKi/sLaTTqRlcT6ml5Fn37lKsmGbmWrdaIgE25x4bcTBam3RexbQ6v1IsHnWduduH7ddP+s7RRBhwi83pBVA47txNmDeH+7tVx2QeTx9LN/an0eDS2zFz+rxkMIPWQJkwoiZKDwREzQZLqdZt8zhwE2cLT3t687XhBhfjwpNRhIUNJCiX1WHpbkLsCWqfVonl2PY5VPYb0skBAJ9ORM9Q53wabYtgwDUJwRFQxkTcOdsoqivwXbLlqzYlw8if3iqSQwDeXWnGFkHuYslld3kTDEy12JBMJ5QQ0sq1YXW5m788qd9x7+QCcohdYMzWrwJgOQ+DlDz4ZsuqGbrwZ3oeJ5kXi5lm6Exf88u9th4u5+Zvs3D1NUW5gKLHzakahHJPAu4z343D+5XPTxtLczlgwgtqFRBQrR22+4nYbfswjJnPcY+vwlqo4YwPGk1GAgQUmT1QpbZj+FYzPrsL60EvNlG4QMFUH40nnFK3WPdbLfunzNL63BEmcpR9Z0bFFVF+I61h8VlGQGxCVIyKhEowhuZIAT+6jGfPXmYSiZemMHu/X7mcPxc3exSjBexWrygu6+bGDON/WF2v3/Zao9g7+W96HPitOuwV9Jg99uh4b753O8g2j+9y/6eIa3c5/dDXKdLikRwZJqLOmWoBtup+n3zCmZ8x7LHvchfjsK8+NJqcJAgpKTW4NGGTyoHH879nc14cmjDagVjxktz+iqjRS6uFt/ptVAMhQIzNSBQLDJu9RhpDLqxmYnQpGNE2O4fnbiC3r8Lno+160lDnjsnGqCz/Pd7dBs/+zESVYTOcc3cHs4Szn87190TlxvpzNhP9uID4+I5/xv4maP7p6m2znw7pLJnfcYPqtFzI8npQoDCbJkBHCTnvRmlwLIho9WGwfZ/kC2czgZ0dYh1azLe+RlQjaibEKtS1dRXOm13iu7aIrgJu4jUUNKX8dlpCjB7ffohphuOW/PC3qiBMMlARwQnzlVX6UWwgD3L7pdwcB57J/ezuiEvf1D2V4kHxXV8e8lkvrtTGSA533AgYzN3/eFzDGQIC1+A8kI/afwlutYEXmYoqdSJrdGtbvYIRt4RgQBsY0oQy6fwLv94jlnHtb43SdPSRwX22APSPXJeasdQ7zRC4vnRXXl68QldcoqMMXjhkXOhnWHHTm3UI7WM2ef4EJt5yyTko/siXoyguxBoRvW+cqpJs4Nm+5fb3e3es6ePdej26T47MoSj/8lv3/2dsYUz7ccxhn5PGuO6/fBeDuNvmcORuc9zK4W8VcVN/DvC5ljIDHqHcc+dXXMwcqyBVHtEGRjSpUVi5RRiY1F0x2NFPNUl8pmeZMr/00lfLF6beRgclK9Ky5gc5fMA4l9mlmPLXJbI4IB2VVVbG9lDZboObEMjotWVW11/ZQKFi/E8lSPMBi6f0QFFm54FGXFjpym7AYo73b5dOyYB1bOFZhctwmLRMIRIrv/yXECVMO6HrRGtcB3K9aPYOeUE43VMKsatzvWKwc4un11bUwiFexWOye2U+6bmlQClbVYtEF3wxTi51TtUoQK3OY4DoHKeRGfKRnvn52A59+rxmCI2Fb7mNY9izlRgZvp/nlv50H8TlZveAWJhttp+j2L4fO8R/JfLZKa7wsNBMeRcDG6xpEQshageaYck8FN5DgN9lgQruS4EOJKu76wDPs7nsHDUW0X7GVdR6D0EnfbLF4jasbdVkkst6N9t8c4EkISx8UpLSNbysF3PO4AKXmNbGmNeqhfxHAbDTHxSIrWnR3jjRjoHIsgVuxyjjEBosnxHdoKsHAxEt7B0d6uaJHrG+D+6XEOvLiPhmmyfwm2094O2XPBrYeF0XYKht8zSzLnPf57Q1z3LzXfFzLHEgkCLr+DpUebsL8/smBaJtA7Og5EJJYnz21FbUe7+J+eIan36XEhnPNT4fIJvBh0LTAP8RpRU27rDLFfO8TyEWGh2E/VvkJsr2cQISVxXJwONLXp+x2I/NTefYMzPPbZRry04gnsOyJyqHqWIi6crbILo8fFvf1H30ej7FOvt0/p6bG6Dq5wu9Amrl9OmKMXR//9tU+gVWyrk7zl9b51bsHHQbyxblvk++U2iv1qXLtJb0finGrvnn9WxyfM2k9ntc2A90/eYEps6xk5kJWDTGDlvkWO1WEz2b8E29nysvWd82p0abSdguH3zJLMedf7l4hr9URqvi9kjiUSLkZdicSQlYc1sroE8UaXzMOSqXWqHUVSJR1ERJQSLJGgoUsPLNXZeyJOz4oLOH3FKy9JRESDjYEEDXklhfdhS25ezAiU5fLOnvKGXvr+Hi+yNIKIKO1YteGCVRtDx5Kp9rDbcSRqNElERIOGJRI0pL126hnUdrSoBo/RoZ3V6LEhcaNJIiIaNCyRcMESCSIiIn9YIkFERETGGEgQERGRMQYSREREZIyBBBERERljIEFERETGGEgQERGRMQYSREREZIyBBBERERljIEFERETGGEgQpZS89flTODZ7QcxNxoa367C8JheN/1M8arJQoufi5q9b88TjsZv1vJRI9/qIyBQDCSJKzmdfxNz3BPgSn1zSk6mW7vURUVIYSBAREZExBhJEKZWLyRl6Ml2K5+KxDfVo3FmP55cF9MxU+wLnP9OTTpe+RLeeTK10r4+ITPHuny5G/t0/ZT1+HVaiBbVt7wBZ07GqbB7mZ+RY/+4PYn/XK3j44gXrdZTyIpFoFQI7jm61bt8tll9TOA935uSE6rI7g014/NRxnNSvbeW5C7CqsFKsS89AULz3oOt7B7qditu29bfjxfbdeM3j1uNJ719uDZoLy1DiJ4AQy80Qy0lLpj6F9WJX9nc8I/ZBzXKhj0FGO55sEdus5zpVra5H/Sz9An1oXrcLu87qlylU9de5qBcHoPtoHx45/IU1MycLz383EwX4HFv/5Y84YM3VZDuHbCy9Hmh99yKe+62eHWL//0s0v3wJu4J6tpb8+ojoWmCJxGiWEcCqqSLRnFkdTpwlMT2/tA7Hpk7XM7zJRPeYWH6lI5GV5HRkYGA1QmwsdQYRklgupxqNlfVYk6VnRTPcTs9tyyjD+plPobkoT8/x5nf/fAURUV7ralF1//ML4zTMzJqGO+VnB0+6BhHpdO6zL9VzT59O1KXgF+iRz+J/59QMpy+wa/cf0SqmKu4cj+WOUyeVzPm6CjK6j/4xJoiQkl8fEV0LDCRGtTLMFwlkZ7AFTx59BjNa5KMBT3bpq7pI4LfkWpOxcjC5sEbk3EXqIHL4Tx5t0Mtbn1HbZeW6beVF94lctZwKihy4471Hm7CjX87PwcqZNVgiJ2MYbGeu3ja5vq4m1Ia27RnUdrSrBLyk8D7v4CWZ/bu42/G/JuyX8/pbItYZeujSCOXyO3hR7kJGJVZ5HOclhZUiaAliR9TxdDrQ1IZWlbqKRHnvvkEpjZA6nQl6yJf4xK0KIuRzPPfu5+J5HJb+laP3RU4WHp45TgQEV7DFLm2IYrY+Iko3BhKjXGdXA5aeesdRzH8Br53bKhJKK5Gen+NdKjE/p0wtP6NNVhM4qxcu4KSz2iBrATbqRF1WF0RURVw+js1tDTqYKMMDHqUEyW1nHtYUlqmp/R1ifeciq01OioR/qQgmZLBwZ453qYTv/RuAUKmE63GejoXysPWfwlvx1nf2EJ5bK47Fiq14ZE+vnjlYPHpLuPas0H77R2yV/7w+Ew/PuU5MXIflfyWrJ75E879f9l5OMVgfEaUVA4lRLYh3g+7tC04GT1kX6sxc72L3YBOWnovTPsGWGbByosGDVpuDGBewuUsm7EBJYJrL+pLcTrs6oL8F27zaHlw8qUoO3Nen+d2/gbh8Au/KICpnXmzpSG455ounzt4TLu1HrgERENT+S3RbBll9cRG1/yZLHbwd+DeriqNg5tfx2F9bVRqt78a2i4gwgPURUfowkKD4MgK4SU9G67zi2UIwQrn4DCnu+6/0WgFBnPXF5VzODlwyKtFY+RSOuT6qVSIdj9/9Gxg7iIouHbFLVdrx4mAHM2nxOZ57+Qq6MQ4VJePEwf2jS+NLIhqOGEgQXWsXD6iqnZLCqnAbkSHUyDJVSqb8OQr0NK6/LtxegoiGNQYS5M7O1ff34rSaMXAlmZ4tN83X57acXbohu1q6NXh0PtreGZxqg6RKVi7grV5Zfl+GhfoQledMFfsVv5HlsHLz17FRNq7s/CO2Hv3S0V6CiIY7BhKj3ORMPREh3FgxFfXzoXYMbu0AlMTrS2o747U7SJsApiSx7pPnDqo2G1ZX0Dx8JyB7iyRoZGlLy4BUA/HneOzOPxfPn2Prv32OA4f/iObPZHuJbN4vg2gEYCAxqslxGOqxpWi6o6HidD0AknyRovp5u5uj6uIp1pfraAvga33Jbme43YFan1wuIlHPw5KiGjRXenU3HYjj2Gfva9kCLHGuN0us17nvEY5jm+yBkjEV3ymyqjX8BnFV1bNRkW9NFyxeiOXF1vRQUfXXX0eFeG591x5A6gvs+nfZXkKOL/F1VKl5RDRccWRLF6NmZEuZWMm6eZUYR7O6arr1srBGfsyxumT6DjTC63Tntr7UbKen/nbsaN8ds6zZ/jlkLUDzTDn+gxvvESpld88toUag8d4XKV0jWxqRd+uUpRGdf4zpaVEyZ3youoO9MIiGL5ZIjGpBvNuuB2iSVQGaNfCTe+Js7gI2t8l1tWC/Y11yG+Rw07Ut8dZntp0nz221BrwKinXoeYoaWlussy02iEiJy+9gqVjvfrEeJzk0946OA3GCA7s0Q0iikWW6BqRKmhzO2lGlEa3z8CVrfImSr+N5tpcgGrZYIuFi9JRIeOfmh4bhsp2pY91/Y/TsLxENfyyRIBoqshbgAT8jWRIRDSEMJIiGAHlXVLtdxf6uQeqSSkQ0CBhIEF0rslGmHmlT3hVVBhGyvYj3LcWJiIYeBhJE14o9mJYkG4B2yBuTjZABqIho1GBjSxcjv7ElERFRarBEgoiIiIwxkCAiIiJjDCSIiIjIGAMJIiIiMsZAgoiIiIwxkCAiIiJjDCSIiIjIGAMJIiIiMsZAgoiIiIwxkBj15K26n8Kx2QtQrucQERH5xSGyXYyuIbJlIFGHlWhBbdtIuutkKR7beRcq9CtXPW14fO0hxJ7pAKqWfRPViyehQM9BTx9a21qxZ0+Hy/vDSirnYtk9s1GRr2dALLc38XJERMMVSySInIrn4rENNah3BhFSfjYqFt+FjTuXY3mxnhelZNlybKxzBhGSXm7D3PANuoiIRhCWSLgYXSUS07Glshrz+9NYIiET6wetBLd77248sqdX/yOVdImEZ6mDmwCWiyBiab4uRTjcgc6z+l/F4vMeFJ8ng4Qjb6P2Rx3WfJvYp+efni2CD7nsPuwR+6TWmWg5IqJhjoGEixEfSOTWoLmwDCUZ+nU8wSbMcLm1dXnuAqwqrMT80GcE0Rk8iMfFexMFI1Wr61E/S78QCW/zul3YZSfYqWIn7Mkm3sUBVKEXB9y2x/5Ml+DE3if3wMiuZhmkfSUiuoZYtTFK+QoiXFmNMxtLnUGElIOSnGo0VtZjTZaeNRyd9QgipInZkdUdIaX4lgqMPkaTa+lKB/bs7RPP2Zg40ZpDRDRSMJAYjS7uxoyWZ/SjCfvlPFm1EZrneESVRpQX3YeVKoAIYn9HQ/h9R5uwo1/Oz8HKmTVYIic9HGhqQ2uPNd29d9/g5NB1ot/dLUsLlqNxZ71+LMfzq+eiyqOdg5sSWUqx7G48XzdJvOpD8/aoqpLi8VDNIo78DgfUDIuzTURn92fqOb8goJ6JiEYKBhLkX9YCbCzMERNB7Di6FQ9fvGDNly4fx+a2Bh1MlOGBojw129XZQ3hu7VbUrtg6SO0jwgoW34X6Wdn6lSQCjFmzUf90PR6r1LPcyGoMHXxsfFo2vrxetXF4fIVL1UQoaLlkvVZVGWI58Xh+mQ4cPumDiGlQUDDeek1ENEIwkCD/MgNWLjt4EJsvqzlRLmBzV7uaKglMu7bjUrR8gOYjH6O5YbdI/K2gRT3WvR0qDamouxtV1qQPIljIm4LbK32UKFROCXU7ZeBARCMdAwnyrTzDSkQ7r1xUz66u6N4K4r03qRnXSi92/ehN7GrR22M724Hn1u5GswomJuFbXqUSZw/hER18PL5uN7bu/Rjd4v1L62rCpQxRQkGDDGLU5/eh9UP20iCikY2BBI1CvXi/TTZ+9NdmoVM2wNzzJh7RAUjB4oWRY0noaoswEcSoqptdeK5Fz4qp/iAiGhkYSJAliRKEksxcPeXCrv7o78VpNWMksQOQbHxzjiMAOXsJqgBi1hTPqpKSguvVc0/34LYJISJKNwYSpAUwJUG3zZPBU1Y1Qc48jy6eeVhTWKamOntPeI8nIQek2mA1ZPSqJhiYAJYvK40zkmQpli22GmBGJuxiudXxRqAM4PbZbst14NdH5PMkVLvuj72+j/Fru4SCiGiEYCAx6h3HvqB8zsHKsgVY4gwQsvKwJNfR++LyO3jRfu/Memxx/i9runXPDtU1tB0vnnP06IhSVR0eRjqmmiAFSpYtxFI1LPXdWF6pS0g0eS+Mxzboe3D0tGGPI2FXy82arYbBfix6ueJSPeqlfBUbEMgurapXxmLZhsIRxMiRLe31RXUPJSIaCTiypYvRNUS2kLUAzTMrPXLi7XiyZTde069CN/nyHNDK6hrq3qvDko6RLdV9L3Spg6uej7F17ZsxCXvJsrvxcPR9NiL0obXB0fbBIe46kxqqm4ho+Bg3IS/vh3rat29843r84Q/WADsj0Ujfvxj/+TEaL/Vh2jdyUfJnmXom0Nnfjv/78QH87Mp/6DnSf+BQzwHs/9N1yM0sEu/Xs9UQ2f+GB4/sxev/qWd5OHthHCZNzUfB1+SAVK9h06+u6P+kzmcnPsIvjvwBf3Z9Nr6enwGxKou8i2fja9iy4zc4pmc5fXbiNN7yWK77dAv+1/b9eCN2xHBFrvPDi+OQXfBfxL7ZkZa890YLtmw5xiCCiEYklki4GHUlEkRERIbYRoKIiIiMMZAgIiIiYwwkiIiIyBgDCSIiIjLGQIKIiIiMMZAgIiIiYwwkiIiIyBgDCSIiIjLGQIKIiIiMMZAgIiIiYwwkiIiIyBgDCSIiIjLGQIKIiIiMMZAgF3lYM/spHKusx5osPWvUso/FU2gumq7nERGRjYEEjXA6EJi9AOV6TlKypuHODGuypLAcS6xJIiLSxtw6Y+ZVPe1bUVEJzp3r1K9GnpG+f4nJxLcOKzOC2HF0KzZf1rOHJb0vaEFt2zs4qef6Zx8LoLOrCUvPHdfzR6MAqlYvRPWsbBToOejpQ+vr+/BcS6+e4a6kci6W3TMbFfl6BsRye1uxZ08H4v3S0r0cESWPJRJEcV3A5rZnMKPlmdEdRBSX4rENNah3BhFSfjYq6mrQuLpUz4hVsmw5NtY5E3VJLLf4LmzcMBclek60dC9HRGYYSNAIl4vJumpixCqeKxL5ejTurMfzywJ6ZgqJz3/+6btEwixz9W/j8RVbUasfjzd8jG75nll34bFK9e5IYtmHF2eLCbns7vCy695Ga4+YnT8bG92CkHQvR0TGWLXhYvRUbeShPLcKGwvLUKIT285gC17segcofArrc6KqNrIWoHlmJUr6vaoJ4leJlBeJxK4Q4f9lTceawnm4MycnlEvsDDbh8VPHYz/b7b397Xi36wA2X7yg52i5NWh27FNcYn0zxPos4WoMN51dDVh6LmpdUcpzF2BVYSXmhz4jKPbpoPs+xVS75GHJ1PvwQMTxaBHLxq+SqVpdj/pZ+oVIQJvX7cKus/plipQsuxu3H37T/XMr70Zj3STgyNuo/VGHnmmxt61bJOqP7Imu/ijFYztFgOKyzelejojMsURi1LISscbSyAS3JKcS62fW44FMPWOQyKDi2MxqrHQkmpKcjkw0xXZO9XhvRhlWltZhS66e4eAriEgpeTyfEsfTGURIYptzqtEYrwdMRgA3iUBpizgf66P3UZyPRtOGoinUuccjiJA+6bNKJWKU4lsqwPkYTTGJutSBPXv7xHM2Jk605ljSvRwRDQQDiVFqyVQ75x3E/o4G1QZAPmqPNmF/v0jMBi0hzsHkwho0FuYA/e148mh43TNaGlDbFdUOIbdKBRCy9CH6vU92BdVb5pfWRPamuLjb8T6xP3KeLEUJzXM8QqURUrg9hPNRq9cTT3nRfa7Hc4Y4njv65fwcrJwZtZ0hZSJ4qxYBSBA7nOeio936d0YlVrkES7YDTW1Wsb3QvXdf+nPaE612E93dl6zXtuLxUM0UjvwOB9QMizNQ6uz+TD3nFziqZNK9HBENCAOJ0ShrAR4Q6bhM9GQ1w8OOqoGTl4/j4bYGnfgNjvk5ZaqaYEbbbrx22VlVcEGsX0/aRFBQe/QZLHV572vntuJJlcYHMOVajnchjudGGRi5HE+I47k5dDzL8EBRnpodQwZKLVsjqmlOin239k+kkRkey0lnD+G5tVZbgNji/MEWwPJ7Jolnl1KAmABDVi3UY6OzLYcuzSgoGG+9ltK9HBENCAOJ0SgzYOXSggevTdfOoOxG6QwK4gsFF1l5WJK7AFum1qN5dr0aJGq9CohyMHmQq2LiSng8L2Bzl1W6UBKY5lJNIQKQdhEo6VdOp68kLg25lqpW12BpPtDa8GZEKYCryimo0JNJJeTpXo6IksJAYhQqz7ByZ51XLqrndEt2vbIB4xY5qNTMOqyXbRBkO4IMFUEMCb6O55Vea/wC2R5CzRj+ZDdL1bDxyNt4rkXPdBFKxFs+QLOqgulD64eRjTLdpHs5IjLDQIKGttyacAPG/nbs72pSbSVqdXsJu+if0kuN1SC7WYog4pGonhohMY0we7FLVcHsCgcebu0r0r0cEQ0IA4lRrCQzTgu+IWE6tpSWiWfdCLFtNx4+d1y1lTgZ0V7ChzSUBMQ9nnb1R38vTqsZw5Uc3dIKImRJRHR3zwhnL0EVCMyagio1I1ZJwfXquafb0b4i3csR0YAwkBiFTgZPWcXsOR73jsjyGMTp8kWoDgEeiXK450KK9Z/CW9FjRSh5mKKnEhu8Bpnh4znPo4tnHtYUyoAI6Ow9EXdMCCODPSBVSADL9eiWapyGeEGE0oFfH5HPk1Dtul2lWKYGj/oYv46oGkn3ckQ0EAwkRqPLJ/Cu7kWwfnYNljgSv3I5mJPsiqhfR7qIM/ZyU6eHGw1mWWM9qC6dgyGjEhuLHOsTCbPaTjmYU8JVHsc+Vf2Rg5VlCyL21Wq8Gac3hF+X38GL9jpm1mOL8zPlQFqhQa7a8WISjUz9qqoODwddsHghlhdb0ymlh8heKke3bHAb7Mmd7JqqekksrhFBTmm4K6b6PDk4lBDVXVNK93JEZI4jW7oYFSNb2qNU6pcRZFuEK2WYHz2ypSQS8GOquiGW7NL5YqYcVMllOcEa2TLH1wiRNnsZV7LLpEjP1ovc/v6OZ/CwV1vHePsqEvcnW9x7TNj8bbc1wJd3iYzbMbGXcT9ekp91D/rIlmqI7NmqbUEibiNKhtpTuOlpw+NrD7neSCvdyxGRGZZIjFYiF71UDpYUdLZWDKrGjLVtu7HNq9uhHNehox2dznEm1GBR8qZWF1LeXfHkua2u67PbTLzmnO9F7+v+/shtk4Nc7eg4EDeI8M8azKq2o0WsR89S5BDZ4pjKMSJcu4YO3KAPSKUbKJrq3LMLjzfIbZSjStrkvTDejpuop3s5IjLDEgkXo+deG0RERAPDEgkiIiIyxkCCiIiIjDGQICIiImMMJIiIiMgYAwkiIiIyxkCCiIiIjDGQICIiImNG40gQERERSSyRICIiImMMJIiIiMgYAwkiIiIyxkCCiIiIjDGQICIiImPjJuTl/VBPE1EK3VLzEB7474swLe8SWv/f7/VcIv8m3PkQVv+PRZjQ90uc+FTPJF/4+0sfdv8kGgwT7sLf1f0lcuR08D38ZNvb4KVs+JAJ+N9W9uLV9Y34SM/zdiu+9+R9KNWvPHW8gmd3/0a/8CMPd6x6EN/O6cWvGl7AL/kF8o+/v7Ri1QbRYPj9R2gPyoledJz6iBexYSUP5VMDIgHqxUU9J67p0xIHEULwYrJFCjcgIFPC4Cmc5BcoOfz9pRVLJIiIIugShqRLECxWaUYAHc0/xC+O65km7Fy14XYQpQtLJIhGM5lYPflDPPHkQ7hjgp432ukSho6TZol3bm5A/O1F70DbNNwQUEXzyZdkEKUXSyQorazcGsJ1vhNE7u++KpTmyIuvEDyFV19pxEd2WWTCXJldjyyWi6jP1vOD9nJ5uOXOO1BZOdWqNxWC4jObxP8iiz0Nl5teiyeWTtUvHBLWz5pup028v+Z7qCy1Eh0p2PEeWva/jY9ukNsUiFO/Hlm3H2zZjh+/e0G/Sq2kz7ttgti/+ZH7J9/7q/d+iV8ej7OtSS0ntmWVY1viiv6eRbOPaaL32bzP38VpKSrZcODvL9q1/P2NHCyRoLQK5dbED0te1J6oExdd5wVc/hqdP7qEuTK7HjmqPnvCLSgT89VyKtf9IO51XByknNL7UH1nnn6lGS43IeCeCAUT1c+abqdkv9+ZWAo5pX+Je+tq8b1yeWG1jrWrCTdELDeYkj7vwgSROPxdXez+IWcqvr30Qfyd2zERkl5OHgdfQYSQqN2EfUw7TiQOIhKcv3mynYYISE6lKIiQ+PuLci1/fyMIu39SGuVhWtVtKOw/hfc+n4O/XVikov1dr/wf/Oubv8TBA6fQ19eJjz79D/1+8Vv9izswuygTnxx53b3724TpmFdRhMxPPsS/Ort4TZ6D74gLcX9WCW77S3FhkDmtl36Bl9983VpP3m3qApL5p3M4mILlLnceFv+X+6AffXkqIfDcbpvpdsqc7z98B4ViSuaA3n7lp2IZa90dYt3FU6eiUF7dxOe99+EZXFbLRLl8Bp/nyQtpppXr2vs79/cNWPLnXeYwV4scZqaYVO/dJt6rju0pdIz7r+I7EUBmUQnGtR9Gp3OjTZYTx6HVPm8HLmFCVbk4DyIn+/xP9bKOh9extOnzGTy1H62djv2JET5/Mtf86ksu50/tRJzzlzT+/mJcy9/fCMISCUojnXvBVFQvlUW22/FjWWQY+n1ewEdRxc4J65s9ckx2DkXlNFu249ltsrjW/myxnv3vQTXqjmK6XDTrc+Jst2a6vltqrCoJmRD8ePfbEVUCvz/eiB83n1LTiXJkH+1+Ac+u/6F1HvS81Ev2vIuLtC6mlsX6kdt2Ab9/txE/aekV0wGUTXPmFE2Xc7BLFIKfGh0P+3wGeyO/x9Hs86e6hG5zP3/qvBtuhzv+/qJd69/fSMFAgtLHvkiLH22w+QX8Il4dt5Kni029u7/doooPxVuiLtzWBVAmKPHr/aMvgKbLRbK7Dybutme0vgl3oVJdxd5TdbfxJErQ0iLJ8z7hzirrIi0u7F5tA35/wkpoc3JvsGYIpstF0AmjWUNLfd4TVUc4zt9P4pw/twR6QPj7izEqfn9pwECC0sfOvcS50EfQ9ZfeuTJ9oYvJedjz5QXd/Yc8YdpUa1sifuimy0Wz640T5SbN1heaFye34zdHlhZJnnfr4t6L9hPxjnEs0+WcrITR9Lh5tBeI4v/8RZ73AePvL8oo+f2lAQMJShv7Iu37Qu9RbBpmXzCicx6JL+h2ohP5QzddLorv7oNm60ucYNo5Y7Fc/CtpWiR33h2JU7xtj/lumC7n5PMzvPisFvF//mQCZ81JBf7+oo2O3186MJCgNEn+Ip0oVzbBHlEw+sLtNT/EY1tMl4viOzeSovXFCOUkvS+Q6TPAxNlVHu74S/ci9fgSLacTFj89LtwkTHj9SpzAJY+/vxij4veXHgwkKE2SvzjGy32o/vC6YV30hdu+AHrnSNy3xXS5aKHtTnDxGdj6PBoMTrgVd9xn32PA6wIp3YrvrZIDUf3QsxtlaiR73i+gV7Vum4qp09WMGBPu/B6+rT7zPRwM5dhNl3OwSxQMJZfjDyDg2kxDjkugG2Km9Pzx9xft2v7+RhYGEpQePot9YwXw7fm3IjToohxAR1xA1UA9HbIFvvydR164410AFZ0Tia7jNF0ukp2LmYpKxwV+wvRbcUvUyJGm6/vopNUiPKdSjokgPzcPE+QFrOYh/F3dfVZiKXhfIEWiJxMr/b6cqbeEj2+qGZx3e/9Klz6E7013XKz1PspzL4/br16JHGjIdLkYpVW4w7G8dWzvwi36tTv/udeLF63vbenS2ojvxITpd4nvthyXwHodr2Qj6fPH39+Q+v2NNBxHgtLDd//6sE/HWn3BkVOO2VV3YJ58VJQjJ1PeDfF/ozVrDmYXXUH7QedYArqvfOY5HHnzI7hdI9z7xpsuF+0/0P+1W9T7Motus7ZZPGZPLceYT5y3gh7A+j79CH15d1j924vKUVZxG2aL41KYk4l+2af9VCbKYo6Lk71u/TJ6DIBUMjjv4f3LFIlk+BjKcy/3UQUDbqMFmi5nu3wFX/sLeVwyUehY3jq2RRgTcStvOSLiP+L7/02vI3Q8RU7VXq98/MV16IgaR+By55+ssSrkeyvC7509tQg5/afw6hGo83f0rXdSd/74+xtCv7+RhyUSlBZ2MWJSddrHG/GqzvVYetHR8gp+st5KDEI5iohraOLiT/eciOlysX7/7i9ctzuyOH1g6/to9w/xk+b3VK4wKD6jQ1zAXm3Yjh/v/ggBefGPOS5OF/DL9+xxCkTCtX/wck5G512w9k9so9pITe6n4/y7MV3OIo7Ltu34VcS5E4vLY9QQPUy1Pn+JuJYA/Aa/aHglcj1yG5u34yfbGvX3IbXnj7+/ofT7G3l4rw2iEeVW614PcoyCuPcYIKLUG52/P5ZIEI0goUGZ4tYjE9FgGK2/P7aRIBpO5I2C/mERJo37E4Kdvw/XvcvGXouXYeksWax6Cm//7JBrvS8RDQB/f65YtUE0nMgLmbyts34ZK0GDQiIyx9+fKwYSRMOOHGvge6h03r5YNvg6dQAH3x3Mm28REX9/sRhIEBERkTE2tiQiIiJjRoFEUVGJniIiIqLRjCUSREREZIyBBBERERljIEFERETGGEgQERGRMQYSREREZIyBBBERERkzGpBKdv88d65TvxqZqlbXo36WfoE+dPd8hqbtb+LAWT2LiIiIWCLhTzYK8ieh/um7UaXnEBEREUsk/CkuxfIH78LS/D40r9uFXSyVICIiUlgi4cfZDrzf1qdfEBERkY2BhE+d3Z/pKSIiIrIxkPCppOB6PUVEREQ2BhJJ+Qzn2T6CiIgohIEEERERGWMgkZRJqN8wF1XF+iUREdEox+6fvgVQtXohqmdlo0DP6d67G4/s6dWviIiIRh+WSCTJDiKIiIiIJRL+Vd6NxrpJQM/H2Lr9Axw4y5IIIiIilkj4ZHX/7EOzut8GgwgiIiKJgURS2P2TiIjIiYFEUq7HjeyxQUREFMJAgoiIiIwxkPCJ99ogIiKKxUDCJ95rg4iIKBYDCT+KS7FscbZ+QURERDaOI+GhanU96mfpF7aeNjy+9hBG25ieREREXlgi4Usfuo+0Yet2BhFEREROLJEgIiIiYyyRICIiImMMJIiIiMgYAwkiIiIyxkCCiIiIjDGQICIiImMMJIiIiMgYAwkiIiIyxkCCiIiIjDGQICIiImMMJIiIiMgYAwkiIiIyxkCCiIiIjDGQICIiImMMJIiIiMgYAwkiIiIyxkCCiIiIjDGQICIiImMMJIiIiMgYAwkiIiIyxkCCiIiIjDGQICIiImMMJIiIiMgYAwkiIiIyxkCCiIiIjDGQICIiImMMJIiIiMgYAwkiIiIyxkCCiIiIjDGQICIiImMMJIiIiMgYAwkiIiIyxkCCiIiIDAH/H95ZJBzZSDvvAAAAAElFTkSuQmCC;" vertex="1" parent="1">
          <mxGeometry x="1385" y="660" width="530" height="300" as="geometry" />
        </mxCell>
      </root>
    </mxGraphModel>
  </diagram>
</mxfile>
